# xmcd
#
# Track frame offsets: 
#        150
#        17046
#        36318
#        53698
#        67361
#        80348
#        98656
#        114219
#        134254
#        153828
#        167054
#
# Disc length: 2504 seconds
#
# Revision: 0
# Processed by: cddbd v1.5.2PL0 Copyright (c) Steve Scherf et al.
# Submitted via: ExactAudioCopyFreeDBPlugin 1.0
#
DISCID=8609c60b
DTITLE=Southern Drawl Band - Elixir
DYEAR=2016
DGENRE=Country
TTITLE0=Damn Sure Comin' From Dixie
TTITLE1=Ghosts of New Orleans
TTITLE2=Mississippi Kid
TTITLE3=One Hell of a Ride
TTITLE4=Rockytop
TTITLE5=She's My Angel
TTITLE6=Somewhere Down the Road
TTITLE7=Tattoo
TTITLE8=Tennessee Line
TTITLE9=When Did I Stop Growing Up
TTITLE10=You'll Never Leave Harlan Alive
EXTD=
EXTT0=
EXTT1=
EXTT2=
EXTT3=
EXTT4=
EXTT5=
EXTT6=
EXTT7=
EXTT8=
EXTT9=
EXTT10=
PLAYORDER=
